<svg xmlns="http://www.w3.org/2000/svg" viewBox="0 0 640 360">
  <rect width="640" height="360" fill="#FAFAF5"/>
  <pattern id="scan2" x="0" y="0" width="2" height="4" patternUnits="userSpaceOnUse">
    <rect width="2" height="2" fill="rgba(0,0,0,0)"/>
  </pattern>
  <rect width="640" height="360" fill="url(#scan2)"/>

  <!-- Cell grid background -->
  <pattern id="grid" x="0" y="0" width="12" height="12" patternUnits="userSpaceOnUse">
    <rect width="12" height="12" fill="none" stroke="rgba(200,198,188,0.6)" stroke-width="0.5"/>
  </pattern>
  <rect x="40" y="20" width="560" height="310" fill="url(#grid)"/>

  <!-- Gosper Glider Gun - scaled up cells -->
  <g transform="translate(40, 20)" fill="#E63946">
    <defs>
      <filter id="cellglow">
        <feGaussianBlur stdDeviation="3" result="blur"/>
        <feComposite in="SourceGraphic" in2="blur" operator="over"/>
      </filter>
    </defs>
    <g filter="url(#cellglow)">
      <!-- Block (left) -->
      <rect x="12" y="60" width="10" height="10"/>
      <rect x="24" y="60" width="10" height="10"/>
      <rect x="12" y="72" width="10" height="10"/>
      <rect x="24" y="72" width="10" height="10"/>

      <!-- Left part of gun -->
      <rect x="132" y="60" width="10" height="10"/>
      <rect x="132" y="72" width="10" height="10"/>
      <rect x="132" y="84" width="10" height="10"/>
      <rect x="144" y="48" width="10" height="10"/>
      <rect x="144" y="96" width="10" height="10"/>
      <rect x="156" y="36" width="10" height="10"/>
      <rect x="156" y="108" width="10" height="10"/>
      <rect x="168" y="36" width="10" height="10"/>
      <rect x="168" y="108" width="10" height="10"/>

      <!-- Center part -->
      <rect x="180" y="72" width="10" height="10"/>
      <rect x="144" y="84" width="10" height="10"/>  <!-- removed duplicate -->

      <!-- Right flap -->
      <rect x="192" y="48" width="10" height="10"/>
      <rect x="192" y="96" width="10" height="10"/>
      <rect x="204" y="60" width="10" height="10"/>
      <rect x="204" y="72" width="10" height="10"/>
      <rect x="204" y="84" width="10" height="10"/>
      <rect x="216" y="72" width="10" height="10"/>

      <!-- Right block area -->
      <rect x="252" y="36" width="10" height="10"/>
      <rect x="252" y="48" width="10" height="10"/>
      <rect x="252" y="60" width="10" height="10"/>
      <rect x="264" y="36" width="10" height="10"/>
      <rect x="264" y="48" width="10" height="10"/>
      <rect x="264" y="60" width="10" height="10"/>
      <rect x="276" y="24" width="10" height="10"/>
      <rect x="276" y="72" width="10" height="10"/>

      <!-- Far right block -->
      <rect x="420" y="36" width="10" height="10"/>
      <rect x="420" y="48" width="10" height="10"/>
      <rect x="432" y="36" width="10" height="10"/>
      <rect x="432" y="48" width="10" height="10"/>

      <!-- Gliders in flight -->
      <!-- Glider 1 -->
      <rect x="336" y="132" width="10" height="10" opacity="0.9"/>
      <rect x="348" y="144" width="10" height="10" opacity="0.9"/>
      <rect x="324" y="156" width="10" height="10" opacity="0.9"/>
      <rect x="336" y="156" width="10" height="10" opacity="0.9"/>
      <rect x="348" y="156" width="10" height="10" opacity="0.9"/>

      <!-- Glider 2 -->
      <rect x="360" y="192" width="10" height="10" opacity="0.7"/>
      <rect x="372" y="204" width="10" height="10" opacity="0.7"/>
      <rect x="348" y="216" width="10" height="10" opacity="0.7"/>
      <rect x="360" y="216" width="10" height="10" opacity="0.7"/>
      <rect x="372" y="216" width="10" height="10" opacity="0.7"/>

      <!-- Glider 3 -->
      <rect x="396" y="252" width="10" height="10" opacity="0.5"/>
      <rect x="408" y="264" width="10" height="10" opacity="0.5"/>
      <rect x="384" y="276" width="10" height="10" opacity="0.5"/>
      <rect x="396" y="276" width="10" height="10" opacity="0.5"/>
      <rect x="408" y="276" width="10" height="10" opacity="0.5"/>
    </g>
  </g>

  <!-- Label -->
  <text x="320" y="342" font-family="monospace" font-size="11" text-anchor="middle" fill="#457B9D" letter-spacing="3">CONWAY'S GAME OF LIFE</text>
</svg>
