<svg xmlns="http://www.w3.org/2000/svg" viewBox="0 0 640 360" width="640" height="360" role="img" aria-label="">
  <defs>
    <linearGradient id="cbg" x1="0%" y1="100%" x2="100%" y2="0%">
      <stop offset="0%" style="stop-color:#0a0f0c" />
      <stop offset="100%" style="stop-color:#0d1510" />
    </linearGradient>
  </defs>
  <rect width="640" height="360" fill="url(#cbg)" />
  <g transform="translate(260 110)">
    <g fill="#3dff8a" opacity="0.9">
      <rect x="40" y="0" width="18" height="18" rx="2" />
      <rect x="60" y="20" width="18" height="18" rx="2" />
      <rect x="80" y="40" width="18" height="18" rx="2" />
      <rect x="60" y="40" width="18" height="18" rx="2" />
      <rect x="40" y="40" width="18" height="18" rx="2" />
    </g>
    <g fill="#3dff8a" opacity="0.25">
      <rect x="0" y="80" width="10" height="10" rx="1" />
      <rect x="20" y="80" width="10" height="10" rx="1" />
      <rect x="100" y="60" width="10" height="10" rx="1" />
      <rect x="120" y="100" width="10" height="10" rx="1" />
      <rect x="80" y="100" width="10" height="10" rx="1" />
    </g>
  </g>
  <text x="320" y="300" text-anchor="middle" fill="#7a9a86" font-family="JetBrains Mono, monospace" font-size="16">torus · step · run</text>
</svg>
