<svg xmlns="http://www.w3.org/2000/svg" width="800" height="450" viewBox="0 0 800 450">
  <defs>
    <linearGradient id="eca" x1="0%" y1="0%" x2="0%" y2="100%">
      <stop offset="0%" style="stop-color:#050807"/>
      <stop offset="100%" style="stop-color:#0f1a14"/>
    </linearGradient>
  </defs>
  <rect width="800" height="450" fill="url(#eca)"/>
  <g fill="#3dff9a" opacity="0.85">
    <rect x="120" y="72" width="4" height="4"/>
    <rect x="124" y="76" width="4" height="4"/>
    <rect x="128" y="80" width="4" height="4"/>
    <rect x="132" y="84" width="8" height="4"/>
    <rect x="144" y="88" width="4" height="4"/>
    <rect x="148" y="92" width="4" height="4"/>
    <rect x="152" y="96" width="4" height="4"/>
    <rect x="156" y="100" width="4" height="4"/>
    <rect x="160" y="104" width="4" height="4"/>
    <rect x="164" y="108" width="12" height="4"/>
    <rect x="180" y="112" width="4" height="4"/>
    <rect x="184" y="116" width="4" height="4"/>
    <rect x="188" y="120" width="4" height="4"/>
    <rect x="192" y="124" width="4" height="4"/>
    <rect x="196" y="128" width="4" height="4"/>
    <rect x="200" y="132" width="4" height="4"/>
    <rect x="204" y="136" width="4" height="4"/>
    <rect x="208" y="140" width="4" height="4"/>
    <rect x="212" y="144" width="4" height="4"/>
    <rect x="216" y="148" width="4" height="4"/>
    <rect x="220" y="152" width="4" height="4"/>
    <rect x="224" y="156" width="4" height="4"/>
    <rect x="228" y="160" width="4" height="4"/>
    <rect x="232" y="164" width="4" height="4"/>
    <rect x="236" y="168" width="4" height="4"/>
    <rect x="240" y="172" width="4" height="4"/>
    <rect x="244" y="176" width="4" height="4"/>
    <rect x="248" y="180" width="4" height="4"/>
    <rect x="252" y="184" width="4" height="4"/>
    <rect x="256" y="188" width="4" height="4"/>
    <rect x="260" y="192" width="4" height="4"/>
    <rect x="264" y="196" width="4" height="4"/>
    <rect x="268" y="200" width="4" height="4"/>
    <rect x="272" y="204" width="4" height="4"/>
    <rect x="276" y="208" width="4" height="4"/>
    <rect x="280" y="212" width="4" height="4"/>
    <rect x="284" y="216" width="4" height="4"/>
    <rect x="288" y="220" width="4" height="4"/>
    <rect x="292" y="224" width="4" height="4"/>
    <rect x="296" y="228" width="4" height="4"/>
    <rect x="300" y="232" width="4" height="4"/>
    <rect x="304" y="236" width="4" height="4"/>
    <rect x="308" y="240" width="4" height="4"/>
    <rect x="312" y="244" width="4" height="4"/>
    <rect x="316" y="248" width="4" height="4"/>
    <rect x="320" y="252" width="4" height="4"/>
    <rect x="324" y="256" width="4" height="4"/>
    <rect x="328" y="260" width="4" height="4"/>
    <rect x="332" y="264" width="4" height="4"/>
    <rect x="336" y="268" width="4" height="4"/>
    <rect x="340" y="272" width="4" height="4"/>
    <rect x="344" y="276" width="4" height="4"/>
    <rect x="348" y="280" width="4" height="4"/>
    <rect x="352" y="284" width="4" height="4"/>
    <rect x="356" y="288" width="4" height="4"/>
    <rect x="360" y="292" width="4" height="4"/>
    <rect x="364" y="296" width="4" height="4"/>
    <rect x="368" y="300" width="4" height="4"/>
    <rect x="372" y="304" width="4" height="4"/>
    <rect x="376" y="308" width="4" height="4"/>
    <rect x="380" y="312" width="4" height="4"/>
    <rect x="384" y="316" width="4" height="4"/>
    <rect x="388" y="320" width="4" height="4"/>
    <rect x="392" y="324" width="4" height="4"/>
    <rect x="396" y="328" width="4" height="4"/>
    <rect x="400" y="332" width="4" height="4"/>
    <rect x="404" y="336" width="4" height="4"/>
    <rect x="408" y="340" width="4" height="4"/>
    <rect x="412" y="344" width="4" height="4"/>
    <rect x="416" y="348" width="4" height="4"/>
    <rect x="420" y="352" width="4" height="4"/>
    <rect x="424" y="356" width="4" height="4"/>
    <rect x="428" y="360" width="4" height="4"/>
    <rect x="432" y="364" width="4" height="4"/>
    <rect x="436" y="368" width="4" height="4"/>
    <rect x="440" y="372" width="4" height="4"/>
    <rect x="444" y="376" width="4" height="4"/>
    <rect x="448" y="380" width="4" height="4"/>
  </g>
  <text x="400" y="410" text-anchor="middle" fill="#1f8f55" font-family="IBM Plex Mono, monospace" font-size="17" letter-spacing="0.12em">ELEMENTARY RULES</text>
</svg>
