<svg xmlns="http://www.w3.org/2000/svg" viewBox="0 0 640 360">
  <rect width="640" height="360" fill="#0C1220"/>

  <!-- Scanline texture -->
  <pattern id="scan" x="0" y="0" width="2" height="4" patternUnits="userSpaceOnUse">
    <rect width="2" height="2" fill="rgba(0,0,0,0.08)"/>
  </pattern>
  <rect width="640" height="360" fill="url(#scan)"/>

  <!-- Glow filter for live cells -->
  <defs>
    <filter id="glow" x="-50%" y="-50%" width="200%" height="200%">
      <feGaussianBlur stdDeviation="2.5" result="blur"/>
      <feMerge>
        <feMergeNode in="blur"/>
        <feMergeNode in="SourceGraphic"/>
      </feMerge>
    </filter>
  </defs>

  <!-- Rule 90  21 rows from single centered cell (SierpiDski triangle)
       41 cells wide, cell size 12px, top-left at (74, 20) -->
  <g fill="#3B82F6" filter="url(#glow)">
    <!-- Row 0 -->
    <rect x="315" y="21" width="10" height="10"/>
    <!-- Row 1 -->
    <rect x="303" y="33" width="10" height="10"/>
    <rect x="327" y="33" width="10" height="10"/>
    <!-- Row 2 -->
    <rect x="291" y="45" width="10" height="10"/>
    <rect x="339" y="45" width="10" height="10"/>
    <!-- Row 3 -->
    <rect x="279" y="57" width="10" height="10"/>
    <rect x="303" y="57" width="10" height="10"/>
    <rect x="327" y="57" width="10" height="10"/>
    <rect x="351" y="57" width="10" height="10"/>
    <!-- Row 4 -->
    <rect x="267" y="69" width="10" height="10"/>
    <rect x="363" y="69" width="10" height="10"/>
    <!-- Row 5 -->
    <rect x="255" y="81" width="10" height="10"/>
    <rect x="279" y="81" width="10" height="10"/>
    <rect x="351" y="81" width="10" height="10"/>
    <rect x="375" y="81" width="10" height="10"/>
    <!-- Row 6 -->
    <rect x="243" y="93" width="10" height="10"/>
    <rect x="291" y="93" width="10" height="10"/>
    <rect x="339" y="93" width="10" height="10"/>
    <rect x="387" y="93" width="10" height="10"/>
    <!-- Row 7 -->
    <rect x="231" y="105" width="10" height="10"/>
    <rect x="255" y="105" width="10" height="10"/>
    <rect x="279" y="105" width="10" height="10"/>
    <rect x="303" y="105" width="10" height="10"/>
    <rect x="327" y="105" width="10" height="10"/>
    <rect x="351" y="105" width="10" height="10"/>
    <rect x="375" y="105" width="10" height="10"/>
    <rect x="399" y="105" width="10" height="10"/>
    <!-- Row 8 -->
    <rect x="219" y="117" width="10" height="10"/>
    <rect x="411" y="117" width="10" height="10"/>
    <!-- Row 9 -->
    <rect x="207" y="129" width="10" height="10"/>
    <rect x="231" y="129" width="10" height="10"/>
    <rect x="399" y="129" width="10" height="10"/>
    <rect x="423" y="129" width="10" height="10"/>
    <!-- Row 10 -->
    <rect x="195" y="141" width="10" height="10"/>
    <rect x="243" y="141" width="10" height="10"/>
    <rect x="387" y="141" width="10" height="10"/>
    <rect x="435" y="141" width="10" height="10"/>
    <!-- Row 11 -->
    <rect x="183" y="153" width="10" height="10"/>
    <rect x="207" y="153" width="10" height="10"/>
    <rect x="231" y="153" width="10" height="10"/>
    <rect x="255" y="153" width="10" height="10"/>
    <rect x="375" y="153" width="10" height="10"/>
    <rect x="399" y="153" width="10" height="10"/>
    <rect x="423" y="153" width="10" height="10"/>
    <rect x="447" y="153" width="10" height="10"/>
    <!-- Row 12 -->
    <rect x="171" y="165" width="10" height="10"/>
    <rect x="267" y="165" width="10" height="10"/>
    <rect x="363" y="165" width="10" height="10"/>
    <rect x="459" y="165" width="10" height="10"/>
    <!-- Row 13 -->
    <rect x="159" y="177" width="10" height="10"/>
    <rect x="183" y="177" width="10" height="10"/>
    <rect x="255" y="177" width="10" height="10"/>
    <rect x="279" y="177" width="10" height="10"/>
    <rect x="351" y="177" width="10" height="10"/>
    <rect x="375" y="177" width="10" height="10"/>
    <rect x="447" y="177" width="10" height="10"/>
    <rect x="471" y="177" width="10" height="10"/>
    <!-- Row 14 -->
    <rect x="147" y="189" width="10" height="10"/>
    <rect x="195" y="189" width="10" height="10"/>
    <rect x="243" y="189" width="10" height="10"/>
    <rect x="291" y="189" width="10" height="10"/>
    <rect x="339" y="189" width="10" height="10"/>
    <rect x="387" y="189" width="10" height="10"/>
    <rect x="435" y="189" width="10" height="10"/>
    <rect x="483" y="189" width="10" height="10"/>
    <!-- Row 15 -->
    <rect x="135" y="201" width="10" height="10"/>
    <rect x="159" y="201" width="10" height="10"/>
    <rect x="183" y="201" width="10" height="10"/>
    <rect x="207" y="201" width="10" height="10"/>
    <rect x="231" y="201" width="10" height="10"/>
    <rect x="255" y="201" width="10" height="10"/>
    <rect x="279" y="201" width="10" height="10"/>
    <rect x="303" y="201" width="10" height="10"/>
    <rect x="327" y="201" width="10" height="10"/>
    <rect x="351" y="201" width="10" height="10"/>
    <rect x="375" y="201" width="10" height="10"/>
    <rect x="399" y="201" width="10" height="10"/>
    <rect x="423" y="201" width="10" height="10"/>
    <rect x="447" y="201" width="10" height="10"/>
    <rect x="471" y="201" width="10" height="10"/>
    <rect x="495" y="201" width="10" height="10"/>
    <!-- Row 16 -->
    <rect x="123" y="213" width="10" height="10"/>
    <rect x="507" y="213" width="10" height="10"/>
    <!-- Row 17 -->
    <rect x="111" y="225" width="10" height="10"/>
    <rect x="135" y="225" width="10" height="10"/>
    <rect x="495" y="225" width="10" height="10"/>
    <rect x="519" y="225" width="10" height="10"/>
    <!-- Row 18 -->
    <rect x="99" y="237" width="10" height="10"/>
    <rect x="147" y="237" width="10" height="10"/>
    <rect x="483" y="237" width="10" height="10"/>
    <rect x="531" y="237" width="10" height="10"/>
    <!-- Row 19 -->
    <rect x="87" y="249" width="10" height="10"/>
    <rect x="111" y="249" width="10" height="10"/>
    <rect x="135" y="249" width="10" height="10"/>
    <rect x="159" y="249" width="10" height="10"/>
    <rect x="471" y="249" width="10" height="10"/>
    <rect x="495" y="249" width="10" height="10"/>
    <rect x="519" y="249" width="10" height="10"/>
    <rect x="543" y="249" width="10" height="10"/>
    <!-- Row 20 -->
    <rect x="75" y="261" width="10" height="10"/>
    <rect x="171" y="261" width="10" height="10"/>
    <rect x="459" y="261" width="10" height="10"/>
    <rect x="555" y="261" width="10" height="10"/>
  </g>

  <!-- Labels -->
  <text x="320" y="304" font-family="monospace" font-size="10" text-anchor="middle" fill="#2563EB" letter-spacing="4" opacity="0.8">RULE 90  SIERPICSKI TRIANGLE</text>
  <text x="320" y="336" font-family="monospace" font-size="14" text-anchor="middle" fill="#93C5FD" letter-spacing="3">1D CELLULAR AUTOMATA</text>
</svg>
