<svg width="512" height="512" viewBox="0 0 512 512" fill="none" xmlns="http://www.w3.org/2000/svg">
  <rect width="512" height="512" rx="120" fill="#030805"/>
  <rect x="30" y="30" width="452" height="452" rx="94" fill="url(#bg)" stroke="#1D412C"/>
  <g filter="url(#glow)">
    <path d="M256 92L264 92L264 100L272 100L272 108L280 108L280 116L288 116L288 124L296 124L296 132L304 132L304 140L312 140L312 148L320 148L320 156L328 156L328 164L336 164L336 172L344 172L344 180L352 180L352 188L360 188L360 196L368 196L368 204L376 204L376 212L384 212L384 220L392 220L392 228L400 228L400 236L408 236L408 244L416 244L416 252" stroke="#8FFFC5" stroke-width="8" stroke-linecap="square"/>
    <path d="M256 92L248 92L248 100L240 100L240 108L232 108L232 116L224 116L224 124L216 124L216 132L208 132L208 140L200 140L200 148L192 148L192 156L184 156L184 164L176 164L176 172L168 172L168 180L160 180L160 188L152 188L152 196L144 196L144 204L136 204L136 212L128 212L128 220L120 220L120 228L112 228L112 236L104 236L104 244L96 244L96 252" stroke="#7BFFB7" stroke-width="8" stroke-linecap="square"/>
    <path d="M256 92L256 100L248 100L248 108L256 108L256 116L264 116L264 124L264 132L272 132L272 140L280 140L280 148L272 148L272 156L264 156L264 164L272 164L272 172L280 172L280 180L288 180L288 188L296 188L296 196L288 196L288 204L280 204L280 212L288 212L288 220L296 220L296 228L304 228L304 236L312 236L312 244L320 244L320 252L328 252L328 260L320 260L320 268L312 268L312 276L304 276L304 284L296 284L296 292L288 292L288 300L280 300L280 308L272 308L272 316L264 316L264 324L256 324L256 332L248 332L248 340L240 340L240 348L232 348L232 356L224 356L224 364L216 364L216 372L208 372L208 380L200 380L200 388L192 388L192 396" stroke="#D7FFEA" stroke-width="8" stroke-linecap="square"/>
  </g>
  <text x="104" y="430" fill="#DFFFF0" font-family="'Courier New', monospace" font-size="48" letter-spacing="8">RULE</text>
  <text x="302" y="430" fill="#8FFFC5" font-family="Georgia, serif" font-size="70">30</text>
  <defs>
    <linearGradient id="bg" x1="256" y1="30" x2="256" y2="482" gradientUnits="userSpaceOnUse">
      <stop stop-color="#0A1F15"/>
      <stop offset="1" stop-color="#040F0A"/>
    </linearGradient>
    <filter id="glow" x="68" y="64" width="376" height="348" filterUnits="userSpaceOnUse" color-interpolation-filters="sRGB">
      <feGaussianBlur stdDeviation="6" result="blur"/>
      <feMerge>
        <feMergeNode in="blur"/>
        <feMergeNode in="SourceGraphic"/>
      </feMerge>
    </filter>
  </defs>
</svg>

